<?xml version="1.0" encoding="UTF-8"?>
<svg id="Capa_1" data-name="Capa 1" xmlns="http://www.w3.org/2000/svg" viewBox="0 0 1000 463.53">
  <defs>
    <style>
      .cls-1 {
        fill: #fff;
      }

      .cls-2 {
        fill: #66061a;
      }
    </style>
  </defs>
  <g>
    <path d="M87.38,317.47c-8.69-11.18-20.49-27.94-34.3-45.94,9.16-8.38,17.69-16.3,26.7-24.37,7.3-6.67,14.44-12.42,22.97-13.81v-1.4h-35.08v1.4c5.9.78,10.24,2.64,10.24,6.21s-5.28,9.16-9,13.04c-9,9.47-16.92,16.92-35.86,34.46,0-5.9-.15-28.87.93-40.67,1.09-11.64,10.24-11.8,15.83-13.04v-1.4H.47v1.4c13.04,1.86,15.83,3.1,16.14,24.68.16,8.69.16,18.01.16,27.63,0,11.02-.31,22.2-.47,31.2-.46,18.32-2.79,18.93-16.3,21.89v1.55h49.82v-1.55c-9.78-2.17-15.99-2.48-16.61-19.4-.16-3.26-.31-9-.31-15.21s.15-8.85.15-13.66l8.23-7.76c11.95,15.68,21.26,27.63,28.4,37.87,3.41,4.97,5.12,8.07,5.12,11.02,0,4.35-4.66,6.52-11.8,7.14v1.55h49.51v-1.55c-8.84-1.71-10.71-2.48-25.14-21.26Z"/>
    <path d="M121.01,233.35c13.66,2.17,16.3,3.1,16.61,24.68.16,8.69.16,18.01.16,27.63,0,11.02,0,22.2-.31,31.2-.78,18.47-3.88,18.62-17.69,21.89v1.55h51.84v-1.55c-10.87-1.86-16.61-2.48-17.38-20.95-.31-6.52-.16-18.78-.16-31.66,0-4.03-.31-25.14,1.09-39.27,1.24-11.95,11.02-12.26,16.61-13.5v-1.4h-50.75v1.4Z"/>
    <path d="M204.99,315.45c0-6.67-.15-18.32-.15-29.34,0-10.4.15-34.61.15-41.29l76.37,96.39h3.1c-.15-21.42-.15-45.01-.15-54.63,0-6.99.15-20.49.31-27.47.46-21.26,4.03-23.44,17.54-25.76v-1.4h-38.18v1.4c13.19,1.71,16.76,7.45,17.07,23.13.15,6.52.46,18.62.46,29.64,0,10.4-.15,21.73-.15,28.25-28.4-34.77-42.84-52.93-65.5-82.42h-32.28v1.4c11.02,1.24,17.85,3.41,18.01,21.73,0,6.99.31,20.95.31,30.58,0,6.99-.16,17.69-.31,24.68-.47,21.11-5.12,25.76-18.78,28.4v1.55h40.82v-1.55c-12.57-1.86-18.63-6.21-18.63-23.28Z"/>
    <path d="M419.43,300.09v-1.55h-50.44v1.55c13.81,1.55,18.01,6.67,18.01,17.54,0,16.14-14.75,22.97-25.61,22.97-18.93,0-34.92-18.78-34.92-53.39,0-32.13,17.23-55.56,37.87-55.56,16.3,0,29.03,10.86,35.85,34.92h1.71l-.78-33.99h-1.71c-.93,2.48-3.1,4.35-5.9,4.35-3.1,0-12.11-7.45-30.11-7.45-32.91,0-56.65,22.19-56.65,59.6,0,30.73,19.09,53.7,54.17,53.7,24.21,0,33.53-10.4,38.03-10.4.62,0,2.48.15,4.19.31h.62c0-1.86-.16-5.59-.16-6.99,0-3.1,0-7.14.47-11.64,1.55-12.42,9.78-12.73,15.37-13.97Z"/>
    <path d="M425.32,266.41l.93,1.55c12.42-5.9,19.25-15.05,19.25-25.3,0-7.61-4.5-11.95-9.93-11.95-4.81,0-8.69,3.73-8.69,8.69,0,4.5,3.11,7.6,7.29,7.6,1.55,0,2.95-.31,4.5-1.09-.31,7.91-4.81,15.05-13.35,20.49Z"/>
    <path d="M494.93,340.91c-16.61-1.4-25.3-13.66-30.58-34.77h-2.02l.78,34.46h1.86c1.71-2.17,2.95-4.5,5.43-4.5,3.88,0,12.57,6.67,26.07,6.67,23.75,0,36.32-15.83,36.32-33.99,0-10.4-6.05-21.42-18.62-27.94-7.91-4.03-18.16-8.54-22.81-11.64-6.36-4.04-13.04-8.69-13.04-19.4s8.54-18.32,19.87-18.32c14.59,0,23.13,17.69,25.92,29.96h2.02l-1.4-29.8h-1.71c-.78,1.71-2.48,3.57-4.81,3.57-2.48,0-8.23-5.9-21.42-5.9-19.09,0-31.04,15.37-31.04,31.2,0,9.93,5.12,17.38,13.97,23.44,6.83,4.81,13.5,6.99,21.42,11.49,10.56,6.05,15.21,14.12,15.21,22.04,0,13.04-7.76,22.35-21.42,23.44Z"/>
    <path d="M646.58,338.73c-9.78-2.17-16.61-2.33-16.61-19.4,0-6.67-.15-20.33-.15-33.22h57.12c0,12.88-.31,26.7-.46,33.37-.31,18.16-8.07,17.69-17.23,19.25v1.55h51.22v-1.55c-12.42-2.48-16.61-3.26-16.76-23.44,0-5.59-.31-18.63-.31-29.65,0-9.78.15-15.99.46-26.38.47-19.87,1.4-23.44,16.45-25.92v-1.4h-50.13v1.4c5.59.93,15.06,1.39,15.83,13.81.62,10.4.93,31.82.93,35.7h-57.12c0-3.88-.16-23.59.93-36.01,1.09-11.64,10.24-12.26,15.83-13.5v-1.4h-49.67v1.4c13.97,2.79,16.14,4.5,16.45,26.23.16,8.54.16,16.45.16,26.08,0,11.02-.31,22.2-.47,31.2-.46,18.32-2.79,18.93-16.3,21.89v1.55h49.82v-1.55Z"/>
    <path d="M733.99,233.35c13.66,2.17,16.3,3.1,16.61,24.68.16,8.69.16,18.01.16,27.63,0,11.02,0,22.2-.31,31.2-.78,18.47-3.88,18.62-17.69,21.89v1.55h51.84v-1.55c-10.87-1.86-16.61-2.48-17.38-20.95-.31-6.52-.15-18.78-.15-31.66,0-4.03-.31-25.14,1.09-39.27,1.24-11.95,11.02-12.26,16.61-13.5v-1.4h-50.75v1.4Z"/>
    <path d="M858.44,337.96c-7.61,0-15.83-1.39-21.42-6.98-4.97-4.97-4.81-11.49-4.97-18.94-.15-7.76-.31-19.09-.31-31.97s-.31-18.78,1.09-32.9c1.24-11.95,10.71-12.57,16.3-13.81v-1.4h-50.44v1.4c9.62,1.71,16.3,2.33,16.61,21.42.16,10.4.16,18.78.16,30.89,0,11.02-.31,21.26-.47,29.8-.31,20.02-7.45,21.57-19.4,23.28v1.55h97.16l.93-33.06h-1.86c-3.73,19.4-14.28,30.73-33.37,30.73Z"/>
    <path d="M998.14,307.23c-3.73,19.4-14.28,30.73-33.37,30.73-7.61,0-15.83-1.39-21.42-6.98-4.97-4.97-4.81-11.49-4.97-18.94-.15-7.76-.31-19.09-.31-31.97s-.31-18.78,1.09-32.9c1.24-11.95,10.71-12.57,16.3-13.81v-1.4h-50.44v1.4c9.62,1.71,16.3,2.33,16.61,21.42.16,10.4.16,18.78.16,30.89,0,11.02-.31,21.26-.47,29.8-.31,20.02-7.45,21.57-19.4,23.28v1.55h97.16l.93-33.06h-1.86Z"/>
    <path d="M310.38,422.25c-5.28-2.69-12.11-5.69-15.21-7.76-4.24-2.69-8.69-5.79-8.69-12.93s5.69-12.21,13.24-12.21c9.73,0,15.42,11.8,17.28,19.97h1.34l-.93-19.86h-1.14c-.52,1.14-1.65,2.38-3.21,2.38-1.65,0-5.48-3.93-14.28-3.93-12.72,0-20.69,10.24-20.69,20.79,0,6.62,3.42,11.59,9.31,15.62,4.55,3.21,9,4.66,14.28,7.66,7.03,4.03,10.14,9.41,10.14,14.69,0,8.69-5.17,14.9-14.28,15.62-11.07-.93-16.86-9.1-20.38-23.18h-1.35l.52,22.97h1.24c1.14-1.45,1.97-3,3.62-3,2.59,0,8.38,4.45,17.38,4.45,15.83,0,24.21-10.55,24.21-22.66,0-6.93-4.03-14.28-12.41-18.62Z"/>
    <path d="M372.54,460.01c-16.86,0-26.59-13.97-26.59-34.35,0-21.83,12.21-36.11,25.45-36.11,8.9,0,18,6,23.69,23.17h1.14l-.93-23.9h-1.03c-.73,1.55-1.86,2.9-3.52,2.9-2.17,0-8.17-3.73-19.35-3.73-22.45,0-38.59,14.8-38.59,39.73,0,20.49,12.94,35.8,37.97,35.8,20.38,0,26.8-14.69,27.21-23.48l-1.65-.31c-1.76,11.59-8.79,20.28-23.8,20.28Z"/>
    <path d="M475.83,445.22c0-3.73-.21-12.42-.21-19.76,0-6.52.1-10.66.31-17.59.31-13.24.93-15.62,10.97-17.28v-.93h-33.42v.93c3.73.62,10.04.93,10.55,9.21.41,6.93.62,21.21.62,23.8h-38.07c0-2.58-.1-15.73.62-24,.73-7.76,6.83-8.17,10.55-9v-.93h-33.11v.93c9.31,1.86,10.76,3,10.97,17.48.1,5.69.1,10.97.1,17.38,0,7.35-.21,14.8-.31,20.8-.31,12.21-1.86,12.62-10.86,14.59v1.04h33.21v-1.04c-6.52-1.45-11.07-1.55-11.07-12.93,0-4.45-.1-13.55-.1-22.14h38.07c0,8.59-.21,17.8-.31,22.24-.21,12.11-5.38,11.8-11.49,12.83v1.04h34.14v-1.04c-8.28-1.65-11.07-2.17-11.17-15.62Z"/>
    <path d="M530.81,387.9c-21.93,0-38.49,16.97-38.49,37.86,0,23.49,19.04,37.76,38.18,37.76,22.87,0,39.01-16.55,39.01-38.38,0-18.21-14.38-37.25-38.7-37.25ZM530.6,462.18c-15.62,0-25.14-18-25.14-36.32,0-22.14,11.79-36.52,25.35-36.52,17.17,0,25.55,19.76,25.55,36.01s-7.86,36.83-25.76,36.83Z"/>
    <path d="M616.94,387.9c-21.93,0-38.49,16.97-38.49,37.86,0,23.49,19.04,37.76,38.18,37.76,22.87,0,39.01-16.55,39.01-38.38,0-18.21-14.38-37.25-38.7-37.25ZM616.74,462.18c-15.62,0-25.14-18-25.14-36.32,0-22.14,11.79-36.52,25.35-36.52,17.17,0,25.55,19.76,25.55,36.01s-7.86,36.83-25.76,36.83Z"/>
    <path d="M701.1,460.32c-5.07,0-10.55-.93-14.28-4.66-3.31-3.31-3.21-7.66-3.31-12.62-.1-5.17-.21-12.73-.21-21.31s-.21-12.52.72-21.93c.83-7.97,7.14-8.38,10.86-9.21v-.93h-33.63v.93c6.41,1.14,10.86,1.55,11.07,14.28.1,6.93.1,12.52.1,20.59,0,7.35-.21,14.18-.31,19.87-.2,13.34-4.96,14.38-12.93,15.52v1.04h64.77l.62-22.04h-1.24c-2.48,12.93-9.52,20.49-22.24,20.49Z"/>
  </g>
  <path class="cls-2" d="M422.97,0v154.07h154.07V0h-154.07ZM511.16,42.32c1.82,0,3.29,1.47,3.29,3.29s-1.47,3.29-3.29,3.29-3.29-1.47-3.29-3.29,1.47-3.29,3.29-3.29ZM500,31.46c1.82,0,3.29,1.47,3.29,3.29s-1.47,3.29-3.29,3.29-3.29-1.47-3.29-3.29,1.47-3.29,3.29-3.29ZM488.84,42.32c1.82,0,3.29,1.47,3.29,3.29s-1.47,3.29-3.29,3.29-3.29-1.47-3.29-3.29,1.47-3.29,3.29-3.29ZM456.35,57.56c1.82,0,3.29,1.47,3.29,3.29s-1.47,3.29-3.29,3.29-3.29-1.47-3.29-3.29,1.47-3.29,3.29-3.29ZM535.94,114.05h-71.88v-6.98h71.88v6.98ZM535.94,101.69h-71.88s3.59-15.65-11-27.15c0,0,3.59-4.27,9.68-3.16,0,0,.24-8.47,5.06-10.98,1.01,7.32,3.16,14.62,9.33,19.25,2.19,1.63,4.79,2.86,7.53,2.88,2.73.03,5.57-1.36,6.76-3.82.98-2.03.75-4.43.24-6.63-.65-2.86-1.71-5.63-3.12-8.2-1.37-2.49-2.94-5.06-5.04-7,0,0,2.94-1.59,9.1.39l7.41-14.95,7.41,14.95c6.16-1.99,9.11-.39,9.11-.39-2.1,1.94-3.67,4.52-5.05,7-1.42,2.57-2.47,5.34-3.12,8.2-.5,2.19-.74,4.6.24,6.63,1.19,2.46,4.04,3.84,6.77,3.82,2.73-.02,5.34-1.25,7.52-2.88,6.17-4.63,8.32-11.93,9.33-19.25,4.82,2.51,5.07,10.98,5.07,10.98,6.09-1.11,9.67,3.16,9.67,3.16-14.59,11.5-11,27.15-11,27.15ZM543.65,64.14c-1.82,0-3.29-1.47-3.29-3.29s1.47-3.29,3.29-3.29,3.29,1.47,3.29,3.29-1.47,3.29-3.29,3.29Z"/>
  <circle class="cls-1" cx="543.65" cy="60.85" r="3.29"/>
  <circle class="cls-1" cx="511.16" cy="45.61" r="3.29"/>
  <path class="cls-1" d="M503.3,34.75c0,1.82-1.47,3.29-3.29,3.29s-3.29-1.47-3.29-3.29,1.47-3.29,3.29-3.29,3.29,1.47,3.29,3.29Z"/>
  <path class="cls-1" d="M492.14,45.61c0,1.82-1.47,3.29-3.29,3.29s-3.29-1.47-3.29-3.29,1.47-3.29,3.29-3.29,3.29,1.47,3.29,3.29Z"/>
  <path class="cls-1" d="M459.64,60.85c0,1.82-1.47,3.29-3.29,3.29s-3.29-1.47-3.29-3.29,1.47-3.29,3.29-3.29,3.29,1.47,3.29,3.29Z"/>
  <path class="cls-1" d="M535.94,101.69h-71.88s3.59-15.65-11-27.15c0,0,3.59-4.27,9.68-3.16,0,0,.24-8.47,5.06-10.98,1.01,7.32,3.16,14.62,9.33,19.25,2.19,1.63,4.79,2.86,7.53,2.88,2.73.03,5.57-1.36,6.76-3.82.98-2.03.75-4.43.24-6.63-.65-2.86-1.71-5.63-3.12-8.2-1.37-2.49-2.94-5.06-5.04-7,0,0,2.94-1.59,9.1.39l7.41-14.95,7.41,14.95c6.16-1.99,9.11-.39,9.11-.39-2.1,1.94-3.67,4.52-5.05,7-1.42,2.57-2.47,5.34-3.12,8.2-.5,2.19-.74,4.6.24,6.63,1.19,2.46,4.04,3.84,6.77,3.82,2.73-.02,5.34-1.25,7.52-2.88,6.17-4.63,8.32-11.93,9.33-19.25,4.82,2.51,5.07,10.98,5.07,10.98,6.09-1.11,9.67,3.16,9.67,3.16-14.59,11.5-11,27.15-11,27.15Z"/>
  <rect class="cls-1" x="464.06" y="107.07" width="71.88" height="6.98"/>
</svg>