<?xml version="1.0" encoding="UTF-8"?>
<svg id="Capa_1" data-name="Capa 1" xmlns="http://www.w3.org/2000/svg" viewBox="0 0 1000 1000.01">
  <defs>
    <style>
      .cls-1 {
        fill: #fff;
      }

      .cls-2 {
        fill: #66061a;
      }

      .cls-3 {
        fill: #08122f;
      }
    </style>
  </defs>
  <g>
    <circle class="cls-3" cx="500" cy="500" r="496.39"/>
    <path class="cls-1" d="M500,1000.01C224.3,1000.01,0,775.71,0,500S224.3,0,500,0s500,224.3,500,500-224.3,500-500,500ZM500,7.23C228.29,7.23,7.23,228.29,7.23,500s221.06,492.77,492.77,492.77,492.76-221.06,492.76-492.77S771.72,7.23,500,7.23Z"/>
  </g>
  <g>
    <circle class="cls-2" cx="500" cy="500" r="318.54"/>
    <path class="cls-1" d="M500,822.16c-177.64,0-322.16-144.52-322.16-322.15S322.36,177.85,500,177.85s322.15,144.52,322.15,322.16-144.52,322.15-322.15,322.15ZM500,185.08c-173.65,0-314.93,141.27-314.93,314.92s141.28,314.92,314.93,314.92,314.92-141.27,314.92-314.92-141.27-314.92-314.92-314.92Z"/>
  </g>
  <g>
    <path class="cls-1" d="M241.41,870.71l13.06-23.98,1.33.76c-4.84,16.5-3.95,28.21,6.43,35.44,9.42,4.41,18.2.94,23.33-8.03,3.12-5.44,3.23-12.75-1.33-20.89-3.43-6.08-6.97-10.1-9.58-15.98-3.44-7.5-3.88-14.55.04-21.38,6.24-10.89,20.16-16.94,32.73-9.73,8.69,4.98,10.14,11.2,11.78,12.14,1.53.88,3.39.24,4.57-.64l1.12.64-10.81,21.02-1.33-.76c2.99-9.48,4.34-24.87-5.27-30.38-7.46-4.28-16.07-2.27-20.29,5.09-4.22,7.37-1.66,13.09.94,18.26,1.84,3.89,6.81,10.85,10.44,16.62,5.71,9.22,5.35,19.09,1.26,26.24-7.15,12.49-21.67,18.62-37.3,9.65-8.88-5.1-11.98-12.97-14.53-14.43-1.64-.94-3.37.19-5.35,1.05l-1.22-.71Z"/>
    <path class="cls-1" d="M389.17,908.18c-3.88,9.71-16.53,23.79-38.45,16.17-26.91-9.37-34.82-31.4-26.81-54.38,9.76-27.98,32.9-38.54,57.04-30.13,12.01,4.18,17.01,10.61,19.34,11.42,1.78.62,3.52-.47,4.92-1.94l1.11.39-8.35,27.16-1.22-.42c.61-21.4-6.84-31.54-16.4-34.87-14.24-4.96-32.95,6.49-41.5,30.99-7.98,22.87-2.99,42.17,15.14,48.49,16.13,5.62,27.09-1.5,33.52-13.84l1.66.97Z"/>
    <path class="cls-1" d="M457.95,944.58l.13-1.23c7.05-.48,12.87.51,14.61-13.77.67-5.25,2.06-16.1,3.13-26.25l-43.13-4.59c-1.07,10.15-2.09,20.92-2.64,26.18-1.42,13.45,3.72,14.12,10.93,16.62l-.13,1.22-37.61-4,.13-1.22c10.44-1.24,12.25-1.54,14.12-15.93.87-7.08,2.03-15.85,2.94-24.53.81-7.58,1.46-13.82,2.06-20.56,1.57-17.14.07-18.66-10.24-21.98l.11-1.09,37.5,3.99-.11,1.09c-4.32.53-11.29.29-13.08,9.37-1.85,9.69-3.38,25.23-3.69,28.28l43.12,4.59c.32-3.06,1.87-19.95,2.27-28.19.44-9.84-6.66-10.97-10.81-12.15l.12-1.1,37.85,4.03-.11,1.1c-11.57.75-12.57,3.48-14.58,19.1-1.1,8.17-1.74,13.04-2.55,20.75-.92,8.68-1.77,18.98-2.23,23.38-1.56,15.91,1.54,16.86,10.71,19.81l-.13,1.22-38.67-4.11Z"/>
    <path class="cls-1" d="M566.56,943.65c-21.58,3.06-45.42-10.68-49.32-38.32-3.48-24.58,12.36-47.19,37.09-50.7,27.41-3.89,46.79,16.2,49.82,37.63,3.63,25.68-11.81,47.73-37.58,51.39ZM589.36,894.61c-2.7-19.11-15.44-41.02-34.79-38.27-15.28,2.17-26.19,20.97-22.5,47.02,3.04,21.55,16.77,41.2,34.39,38.7,20.18-2.87,25.72-27.61,22.91-47.45Z"/>
    <path class="cls-1" d="M676.82,914.24c-20.21,8.12-46.65.46-57.06-25.44-9.28-23.05.68-48.78,23.83-58.1,25.67-10.32,49.3,4.57,57.38,24.65,9.69,24.07,0,49.18-24.15,58.88ZM687.2,861.16c-7.21-17.92-24.82-36.15-42.96-28.86-14.31,5.76-20.38,26.62-10.56,51.04,8.12,20.2,26.16,36.01,42.66,29.38,18.9-7.6,18.34-32.96,10.86-51.55Z"/>
    <path class="cls-1" d="M736.79,884.45l-.69-1.02c6.75-6.2,10.55-10.25,1.86-23.52-3.69-5.67-8.04-12.52-12.93-19.75-5.37-7.94-9.09-13.45-13.8-20.2-8.67-12.39-13.14-9.96-19.94-6.99l-.62-.92,31.7-21.45.62.92c-2.97,3.19-8.64,7.62-4.12,15.99,5.39,9.87,8.41,13.91,13.92,22.05,5.71,8.45,10.83,15.83,14.38,20.85,3.4,4.82,6.19,9.16,11.52,10.31,5.99,1.29,11.78-1.29,16.56-4.52,12-8.12,13.6-20.04,7.34-34.36l1.17-.79,14.08,22.09-61.07,41.31Z"/>
  </g>
  <g>
    <path class="cls-1" d="M205.78,284.44l-1.02-.7c2.82-4.93,3.51-8.94.68-10.9-1.92-1.33-4.71-1.62-9.48-1.64-9.9.02-21.89.69-37.49,1.4l1.33,8.86c3.14,2.17,4.89,3.53,8.83,6.26,4.04,2.8,7.85,5.3,10.04,6.67,11.3,7.23,14.31,3.33,20.13-2.06l1.01.7-22.49,32.44-1.01-.7c4.17-10.13,4.82-11.92-6.89-20.49-5.79-4.16-12.93-9.41-20.11-14.39-6.27-4.34-12.33-8.55-18.06-12.37-14.19-9.53-16.26-8.28-23.35-.63l-.91-.63,22.28-32.14.91.63c-1.72,4.19-5.75,10.23,1.34,16.19,7.19,6.03,22.22,16.31,26.06,18.97-2.87-20.25-4.15-28.77-6.25-38.91-.85-4.18-2.2-10.21-4.43-11.75-2.32-1.61-5.5.38-8.67,3.87l-.91-.63,15.83-22.85.91.63c-2.94,6.19-2.42,13.43-1.37,21.2,1.19,9.51,2.49,18.64,3.81,28.38,17.96-.87,34.2-.98,45.4-1.6,18.75-.93,20.1-1.79,25.2-6.77l1.02.7-22.35,32.24Z"/>
    <path class="cls-1" d="M230.87,253.2l-.86-.88c6.04-9.48,7.71-11.28-2.05-22.19-4.8-5.28-10.97-11.62-17.05-17.87-5.32-5.46-10.47-10.74-15.35-15.59-12.09-12.07-14.1-11.14-23.05-4.83l-.78-.79,28.8-28.04.77.79c-2.49,3.79-7.86,9.37-1.96,16.84,7.01,8.79,18.85,20.59,21.07,22.88,7.12,7.31,13.8,14.35,17.58,17.88,10.64,10.05,14.24,7.23,21.44,2.28l.85.88-29.41,28.63Z"/>
    <path class="cls-1" d="M331.2,176.06l-92.09-31.77c2.85,4.46,13.06,20.68,17.51,27.63,4.7,7.36,9.77,15.06,12.61,19.52,7.28,11.4,13.18,11.72,22.37,7.6l.66,1.03-27.25,17.41-.66-1.03c7.99-7.59,9.12-12.68.42-26.97-2.87-4.73-7.34-11.94-10.32-16.61-4.11-6.42-10.28-15.62-13.25-20.28-7.92-12.16-13.4-10.7-21.29-6.83l-.59-.93,21.55-13.77c27.71,10.02,45.09,15.99,78.88,27.08-2.78-4.35-7.51-11.98-11.94-18.92-4.7-7.36-10.08-15.31-12.96-19.59-6.89-10.33-11.73-12.64-21.26-8.16l-.59-.93,25.49-16.29.59.93c-8.02,7.31-9.48,10.29-.71,24.68,2.87,4.73,8.53,13.81,11.51,18.47,4.1,6.42,14.17,22.17,23.4,36.41l-2.07,1.32Z"/>
    <path class="cls-1" d="M420.68,136.28c-1.32.29-2.77.62-3.23.77-3.4,1.08-7.94,11.16-26.22,16.96-26.48,8.4-46.4-4.36-53.76-27.57-8.96-28.24,3.65-50.69,28.5-58.57,13.59-4.31,22.17-.85,24.52-1.59,2.1-.67,3.3-2.6,3.41-4.7l1.29-.41,8.73,25.48-1.29.41c-10.92-16.53-23.14-21.68-35.44-17.78-15.59,4.95-22.98,26.77-15.28,51.03,8.29,26.13,24.87,36.48,39.16,31.95,8.21-2.6,17.7-11.29,13.83-23.48-2.61-8.2-7-11.07-17.8-8.93l-.37-1.17,38.09-12.09.37,1.17c-3.92,2.28-10.06,4.48-8.26,14.23.73,3.51,1.69,6.56,2.44,8.9.34,1.06,1.34,3.83,1.79,5.24l-.47.15Z"/>
    <path class="cls-1" d="M434.01,81.94c6.11-5.19,8.86-11.29,8.25-17.53-1.14.78-2.2,1.17-3.42,1.34-3.28.46-6.06-1.64-6.55-5.18-.54-3.9,2.1-7.24,5.88-7.76,4.26-.59,8.27,2.33,9.1,8.3,1.12,8.04-3.25,15.97-12.36,21.95l-.9-1.12Z"/>
    <path class="cls-1" d="M473.84,135.23l-.17-27.3,1.6.03c3.91,16.78,10.64,26.61,23.77,27.93,10.83-.69,17.1-7.96,17.27-18.29.1-6.27-3.49-12.72-11.77-17.65-6.21-3.67-11.47-5.47-16.81-9.37-6.93-4.9-10.9-10.87-10.77-18.74.2-12.54,9.87-24.55,24.99-24.31,10.45.17,14.92,4.92,16.89,4.95,1.84.03,3.22-1.43,3.86-2.77l1.35.02.73,23.62-1.6-.03c-2.06-9.75-8.59-23.87-20.15-24.05-8.98-.15-15.83,5.77-15.97,14.25-.14,8.49,5.08,12.26,10.08,15.53,3.64,2.52,11.7,6.21,17.92,9.51,9.87,5.32,14.53,14.13,14.4,22.37-.23,14.38-10.4,26.76-29.2,26.45-10.7-.17-17.49-5.57-20.56-5.62-1.97-.03-2.98,1.8-4.36,3.5l-1.48-.02Z"/>
    <path class="cls-1" d="M632.1,159.98l.42-1.16c7.25,1.31,12.9,3.75,18.02-9.7,1.91-4.93,5.87-15.14,9.34-24.74l-42.56-15.39c-3.47,9.6-7.04,19.82-8.83,24.79-4.6,12.72.44,14.68,7.15,18.93l-.42,1.15-37.13-13.42.42-1.16c10.85,1.44,12.76,1.61,18.04-11.91,2.54-6.67,5.78-14.91,8.75-23.12,2.59-7.17,4.72-13.07,6.91-19.47,5.62-16.27,4.46-18.13-5.19-23.98l.37-1.04,37.01,13.38-.37,1.04c-4.5-.58-11.49-2.59-15.44,5.79-4.15,8.96-9.35,23.69-10.4,26.58l42.56,15.39c1.05-2.89,6.59-18.93,8.93-26.85,2.77-9.46-4.16-12.36-8.07-14.56l.37-1.04,37.35,13.51-.37,1.04c-11.89-2.2-13.55.2-19.24,14.88-3.03,7.67-4.82,12.25-7.46,19.53-2.97,8.21-6.25,18.01-7.75,22.17-5.32,15.07-2.41,16.78,6.17,21.98l-.42,1.16-38.16-13.8Z"/>
    <path class="cls-1" d="M677.39,180.74l.66-1.04c10.62,3.67,12.77,4.88,21.11-7.14,4.03-5.89,8.76-13.37,13.43-20.74,4.07-6.44,8.02-12.67,11.6-18.55,8.93-14.56,7.56-16.3-.65-23.55l.59-.94,33.95,21.51-.59.93c-4.27-1.54-10.94-5.47-16.84,2-6.91,8.86-15.65,23.11-17.37,25.81-5.45,8.62-10.76,16.75-13.31,21.25-7.3,12.68-3.73,15.53,2.75,21.38l-.66,1.04-34.68-21.97Z"/>
    <path class="cls-1" d="M719.51,206.47l.83-.9c7.87,5.42,12.87,8.35,23.79-3.14,4.68-4.89,10.35-10.68,16.26-17.1,6.5-7.05,11-11.93,16.49-18.07,10.07-11.28,6.52-15.23,1.83-21.38l.75-.82,29.37,27.08-.75.82c-3.92-2.28-9.77-7-16.91-.71-8.39,7.48-11.62,11.35-18.29,18.58-6.91,7.5-12.91,14.18-16.98,18.78-3.91,4.42-7.49,8.14-7.27,13.69.25,6.25,4.29,11.48,8.72,15.56,11.12,10.25,23.34,9.32,35.92.02l1.08,1-18.28,18.75-56.57-52.15Z"/>
    <path class="cls-1" d="M778.41,261.62l1.01-.7c6.5,7.01,10.74,10.96,23.92,2.13,5.63-3.75,12.44-8.18,19.62-13.15,7.88-5.46,13.34-9.25,20.04-14.04,12.3-8.82,9.68-13.45,6.45-20.48l.9-.63,22.78,32.85-.91.63c-3.33-3.08-8.01-8.97-16.35-4.38-9.83,5.46-13.83,8.54-21.92,14.15-8.39,5.81-15.7,11.03-20.68,14.63-4.78,3.47-9.1,6.31-10.08,11.79-1.12,6.16,1.69,12.15,5.12,17.1,8.62,12.44,20.76,14.19,35.08,7.86l.84,1.21-21.95,14.31-43.86-63.28Z"/>
  </g>
  <g>
    <rect class="cls-1" x="347.71" y="615.89" width="304.59" height="29.56"/>
    <path class="cls-1" d="M657.93,464.64s-1.06-35.89-21.46-46.54c-4.3,31.03-13.38,61.94-39.55,81.56-9.26,6.95-20.3,12.16-31.88,12.24-11.58.09-23.62-5.77-28.66-16.2-4.17-8.6-3.16-18.78-1.03-28.1,2.76-12.12,7.24-23.85,13.25-34.74,5.83-10.55,12.47-21.45,21.38-29.69,0,0-12.5-6.71-38.59,1.69l-31.38-63.37-31.38,63.37c-26.09-8.41-38.58-1.69-38.58-1.69,8.91,8.23,15.55,19.14,21.38,29.69,6.01,10.88,10.49,22.61,13.25,34.74,2.12,9.32,3.13,19.5-1.04,28.1-5.05,10.42-17.09,16.28-28.66,16.2-11.58-.09-22.62-5.3-31.88-12.24-26.16-19.62-35.25-50.53-39.55-81.56-20.41,10.65-21.47,46.54-21.47,46.54-25.81-4.73-40.98,13.38-40.98,13.38,61.82,48.73,46.62,115.05,46.62,115.05h304.58s-15.21-66.32,46.62-115.05c0,0-15.17-18.11-40.98-13.38Z"/>
    <circle class="cls-1" cx="500" cy="309.4" r="13.95"/>
    <circle class="cls-1" cx="452.71" cy="355.44" r="13.95"/>
    <circle class="cls-1" cx="547.29" cy="355.44" r="13.95"/>
    <circle class="cls-1" cx="315.04" cy="420.02" r="13.95" transform="translate(-136.75 152.53) rotate(-22.5)"/>
    <circle class="cls-1" cx="684.96" cy="420.02" r="13.95" transform="translate(-58.43 115.14) rotate(-9.22)"/>
  </g>
</svg>